<mxfile host="app.diagrams.net" modified="2023-11-18T17:45:28.666Z" agent="Mozilla/5.0 (Windows NT 10.0; Win64; x64) AppleWebKit/537.36 (KHTML, like Gecko) Chrome/119.0.0.0 Safari/537.36" etag="cEQDvS2YjU5kyjDqW-Yb" version="22.1.3" type="google">
  <diagram name="Page-1" id="HZln_TAxclxzuqFvXZql">
    <mxGraphModel grid="1" page="1" gridSize="10" guides="1" tooltips="1" connect="1" arrows="1" fold="1" pageScale="1" pageWidth="827" pageHeight="1169" math="0" shadow="0">
      <root>
        <mxCell id="0" />
        <mxCell id="1" parent="0" />
        <mxCell id="nsnuBRXvl4yaV5E1CfSB-3" value="NavigationService" style="shape=umlLifeline;perimeter=lifelinePerimeter;whiteSpace=wrap;html=1;container=1;dropTarget=0;collapsible=0;recursiveResize=0;outlineConnect=0;portConstraint=eastwest;newEdgeStyle={&quot;curved&quot;:0,&quot;rounded&quot;:0};participant=umlControl;" vertex="1" parent="1">
          <mxGeometry x="560" y="50" width="40" height="510" as="geometry" />
        </mxCell>
        <mxCell id="nsnuBRXvl4yaV5E1CfSB-4" value="" style="html=1;points=[[0,0,0,0,5],[0,1,0,0,-5],[1,0,0,0,5],[1,1,0,0,-5]];perimeter=orthogonalPerimeter;outlineConnect=0;targetShapes=umlLifeline;portConstraint=eastwest;newEdgeStyle={&quot;curved&quot;:0,&quot;rounded&quot;:0};" vertex="1" parent="nsnuBRXvl4yaV5E1CfSB-3">
          <mxGeometry x="15" y="70" width="10" height="290" as="geometry" />
        </mxCell>
        <mxCell id="nsnuBRXvl4yaV5E1CfSB-5" value="MapViewModel" style="shape=umlLifeline;perimeter=lifelinePerimeter;whiteSpace=wrap;html=1;container=1;dropTarget=0;collapsible=0;recursiveResize=0;outlineConnect=0;portConstraint=eastwest;newEdgeStyle={&quot;curved&quot;:0,&quot;rounded&quot;:0};participant=umlControl;" vertex="1" parent="1">
          <mxGeometry x="320" y="50" width="40" height="510" as="geometry" />
        </mxCell>
        <mxCell id="nsnuBRXvl4yaV5E1CfSB-6" value="" style="html=1;points=[[0,0,0,0,5],[0,1,0,0,-5],[1,0,0,0,5],[1,1,0,0,-5]];perimeter=orthogonalPerimeter;outlineConnect=0;targetShapes=umlLifeline;portConstraint=eastwest;newEdgeStyle={&quot;curved&quot;:0,&quot;rounded&quot;:0};" vertex="1" parent="nsnuBRXvl4yaV5E1CfSB-5">
          <mxGeometry x="15" y="120" width="10" height="330" as="geometry" />
        </mxCell>
        <mxCell id="nsnuBRXvl4yaV5E1CfSB-7" value="&lt;font style=&quot;font-size: 11px;&quot;&gt;queryNearby(origin, destination)&lt;/font&gt;" style="html=1;verticalAlign=bottom;endArrow=block;curved=0;rounded=0;fontSize=11;" edge="1" parent="1">
          <mxGeometry width="80" relative="1" as="geometry">
            <mxPoint x="345" y="180" as="sourcePoint" />
            <mxPoint x="575" y="180" as="targetPoint" />
            <Array as="points" />
          </mxGeometry>
        </mxCell>
        <mxCell id="nsnuBRXvl4yaV5E1CfSB-8" value="PipApi" style="shape=umlLifeline;perimeter=lifelinePerimeter;whiteSpace=wrap;html=1;container=1;dropTarget=0;collapsible=0;recursiveResize=0;outlineConnect=0;portConstraint=eastwest;newEdgeStyle={&quot;curved&quot;:0,&quot;rounded&quot;:0};participant=umlBoundary;" vertex="1" parent="1">
          <mxGeometry x="780" y="50" width="50" height="510" as="geometry" />
        </mxCell>
        <mxCell id="nsnuBRXvl4yaV5E1CfSB-9" value="" style="html=1;points=[[0,0,0,0,5],[0,1,0,0,-5],[1,0,0,0,5],[1,1,0,0,-5]];perimeter=orthogonalPerimeter;outlineConnect=0;targetShapes=umlLifeline;portConstraint=eastwest;newEdgeStyle={&quot;curved&quot;:0,&quot;rounded&quot;:0};" vertex="1" parent="nsnuBRXvl4yaV5E1CfSB-8">
          <mxGeometry x="20" y="130" width="10" height="40" as="geometry" />
        </mxCell>
        <mxCell id="nsnuBRXvl4yaV5E1CfSB-10" value="&lt;b&gt;sd &lt;/b&gt;U2 Widen Search Area" style="shape=umlFrame;whiteSpace=wrap;html=1;pointerEvents=0;width=140;height=30;" vertex="1" parent="1">
          <mxGeometry width="1220" height="560" as="geometry" />
        </mxCell>
        <mxCell id="nsnuBRXvl4yaV5E1CfSB-11" value="&lt;font style=&quot;font-size: 8px;&quot;&gt;queryNearby(origin, destination, searchRadius)&lt;/font&gt;" style="html=1;verticalAlign=bottom;endArrow=block;curved=0;rounded=0;" edge="1" parent="1" source="nsnuBRXvl4yaV5E1CfSB-4" target="nsnuBRXvl4yaV5E1CfSB-9">
          <mxGeometry width="80" relative="1" as="geometry">
            <mxPoint x="435" y="189.62" as="sourcePoint" />
            <mxPoint x="580" y="190" as="targetPoint" />
            <Array as="points">
              <mxPoint x="720" y="190" />
            </Array>
          </mxGeometry>
        </mxCell>
        <mxCell id="nsnuBRXvl4yaV5E1CfSB-12" value="&lt;font style=&quot;font-size: 8px;&quot;&gt;value = return&lt;/font&gt;" style="html=1;verticalAlign=bottom;endArrow=open;dashed=1;endSize=8;curved=0;rounded=0;" edge="1" parent="1">
          <mxGeometry relative="1" as="geometry">
            <mxPoint x="800" y="212.71" as="sourcePoint" />
            <mxPoint x="585" y="212.71000000000004" as="targetPoint" />
          </mxGeometry>
        </mxCell>
        <mxCell id="nsnuBRXvl4yaV5E1CfSB-14" value="&lt;font style=&quot;font-size: 8px;&quot;&gt;queryNearby(origin, destination, searchRadius + 1km)&lt;/font&gt;" style="html=1;verticalAlign=bottom;endArrow=block;curved=0;rounded=0;" edge="1" parent="1">
          <mxGeometry width="80" relative="1" as="geometry">
            <mxPoint x="585" y="321.07000000000005" as="sourcePoint" />
            <mxPoint x="800" y="321.07" as="targetPoint" />
            <Array as="points" />
          </mxGeometry>
        </mxCell>
        <mxCell id="nsnuBRXvl4yaV5E1CfSB-15" value="&lt;font style=&quot;font-size: 8px;&quot;&gt;List&amp;lt;CarparkAvailability&amp;gt;&lt;/font&gt;" style="html=1;verticalAlign=bottom;endArrow=open;dashed=1;endSize=8;curved=0;rounded=0;" edge="1" parent="1">
          <mxGeometry relative="1" as="geometry">
            <mxPoint x="800" y="343.0000000000001" as="sourcePoint" />
            <mxPoint x="585" y="343" as="targetPoint" />
          </mxGeometry>
        </mxCell>
        <mxCell id="nsnuBRXvl4yaV5E1CfSB-16" value="&lt;font style=&quot;font-size: 8px;&quot;&gt;value = List&amp;lt;CarparkAvailability&amp;gt;&lt;/font&gt;" style="html=1;verticalAlign=bottom;endArrow=open;dashed=1;endSize=8;curved=0;rounded=0;" edge="1" parent="1">
          <mxGeometry relative="1" as="geometry">
            <mxPoint x="575" y="400" as="sourcePoint" />
            <mxPoint x="345" y="400" as="targetPoint" />
          </mxGeometry>
        </mxCell>
        <mxCell id="nsnuBRXvl4yaV5E1CfSB-17" value="MapUI" style="shape=umlLifeline;perimeter=lifelinePerimeter;whiteSpace=wrap;html=1;container=1;dropTarget=0;collapsible=0;recursiveResize=0;outlineConnect=0;portConstraint=eastwest;newEdgeStyle={&quot;curved&quot;:0,&quot;rounded&quot;:0};participant=umlBoundary;" vertex="1" parent="1">
          <mxGeometry x="50" y="50" width="50" height="510" as="geometry" />
        </mxCell>
        <mxCell id="nsnuBRXvl4yaV5E1CfSB-18" value="" style="html=1;points=[[0,0,0,0,5],[0,1,0,0,-5],[1,0,0,0,5],[1,1,0,0,-5]];perimeter=orthogonalPerimeter;outlineConnect=0;targetShapes=umlLifeline;portConstraint=eastwest;newEdgeStyle={&quot;curved&quot;:0,&quot;rounded&quot;:0};" vertex="1" parent="nsnuBRXvl4yaV5E1CfSB-17">
          <mxGeometry x="20" y="430" width="10" height="50" as="geometry" />
        </mxCell>
        <mxCell id="nsnuBRXvl4yaV5E1CfSB-19" value="&lt;font style=&quot;font-size: 8px;&quot;&gt;set(nearbyCarparks, value)&lt;/font&gt;" style="html=1;verticalAlign=bottom;endArrow=block;curved=0;rounded=0;" edge="1" parent="1">
          <mxGeometry x="0.1538" y="-50" width="80" relative="1" as="geometry">
            <mxPoint x="345" y="420" as="sourcePoint" />
            <mxPoint x="345" y="440" as="targetPoint" />
            <Array as="points">
              <mxPoint x="400" y="420" />
              <mxPoint x="400" y="440" />
            </Array>
            <mxPoint x="50" y="50" as="offset" />
          </mxGeometry>
        </mxCell>
        <mxCell id="nsnuBRXvl4yaV5E1CfSB-20" value="&lt;font style=&quot;font-size: 8px;&quot;&gt;set(sortedCarparks, sorted(value))&lt;/font&gt;" style="html=1;verticalAlign=bottom;endArrow=block;curved=0;rounded=0;" edge="1" parent="1">
          <mxGeometry x="0.1538" y="-70" width="80" relative="1" as="geometry">
            <mxPoint x="345" y="450" as="sourcePoint" />
            <mxPoint x="345" y="470" as="targetPoint" />
            <Array as="points">
              <mxPoint x="400" y="450" />
              <mxPoint x="400" y="470" />
            </Array>
            <mxPoint x="70" y="70" as="offset" />
          </mxGeometry>
        </mxCell>
        <mxCell id="nsnuBRXvl4yaV5E1CfSB-21" value="&lt;font style=&quot;font-size: 8px;&quot;&gt;finalCarparks.notify()&lt;/font&gt;" style="html=1;verticalAlign=bottom;endArrow=block;curved=0;rounded=0;" edge="1" parent="1" source="nsnuBRXvl4yaV5E1CfSB-6">
          <mxGeometry width="80" relative="1" as="geometry">
            <mxPoint x="230" y="480" as="sourcePoint" />
            <mxPoint x="80" y="490" as="targetPoint" />
          </mxGeometry>
        </mxCell>
        <mxCell id="nsnuBRXvl4yaV5E1CfSB-22" value="&lt;font style=&quot;font-size: 8px;&quot;&gt;recompose()&lt;/font&gt;" style="html=1;verticalAlign=bottom;endArrow=block;curved=0;rounded=0;" edge="1" parent="1">
          <mxGeometry x="0.1538" y="-25" width="80" relative="1" as="geometry">
            <mxPoint x="80" y="500" as="sourcePoint" />
            <mxPoint x="80" y="520" as="targetPoint" />
            <Array as="points">
              <mxPoint x="135" y="500" />
              <mxPoint x="135" y="520" />
            </Array>
            <mxPoint x="25" y="25" as="offset" />
          </mxGeometry>
        </mxCell>
        <mxCell id="XJgKt5gbjQXstTjNCs9V-1" value="&lt;b&gt;ref&lt;/b&gt;" style="shape=umlFrame;whiteSpace=wrap;html=1;pointerEvents=0;recursiveResize=0;container=1;collapsible=0;width=50;height=30;" vertex="1" parent="1">
          <mxGeometry x="60" y="110" width="290" height="50" as="geometry" />
        </mxCell>
        <mxCell id="XJgKt5gbjQXstTjNCs9V-2" value="U1 Find Nearest Carpark" style="text;html=1;align=center;verticalAlign=middle;resizable=0;points=[];autosize=1;strokeColor=none;fillColor=none;" vertex="1" parent="XJgKt5gbjQXstTjNCs9V-1">
          <mxGeometry x="65" y="10" width="160" height="30" as="geometry" />
        </mxCell>
        <mxCell id="XJgKt5gbjQXstTjNCs9V-6" value="&lt;b&gt;alt&lt;/b&gt;" style="shape=umlFrame;whiteSpace=wrap;html=1;pointerEvents=0;recursiveResize=0;container=1;collapsible=0;width=53;height=30;" vertex="1" parent="1">
          <mxGeometry x="567" y="240" width="253" height="120" as="geometry" />
        </mxCell>
        <mxCell id="XJgKt5gbjQXstTjNCs9V-7" value="[if (value.size == 1)]" style="text;html=1;align=center;verticalAlign=middle;resizable=0;points=[];autosize=1;strokeColor=none;fillColor=none;" vertex="1" parent="XJgKt5gbjQXstTjNCs9V-6">
          <mxGeometry x="13" y="32" width="130" height="30" as="geometry" />
        </mxCell>
        <mxCell id="XJgKt5gbjQXstTjNCs9V-9" value="" style="html=1;points=[[0,0,0,0,5],[0,1,0,0,-5],[1,0,0,0,5],[1,1,0,0,-5]];perimeter=orthogonalPerimeter;outlineConnect=0;targetShapes=umlLifeline;portConstraint=eastwest;newEdgeStyle={&quot;curved&quot;:0,&quot;rounded&quot;:0};" vertex="1" parent="XJgKt5gbjQXstTjNCs9V-6">
          <mxGeometry x="233" y="70" width="10" height="40" as="geometry" />
        </mxCell>
        <mxCell id="XJgKt5gbjQXstTjNCs9V-13" value="POST /api/v1/carpark/nearby" style="html=1;verticalAlign=bottom;endArrow=block;curved=0;rounded=0;entryX=0.009;entryY=0.381;entryDx=0;entryDy=0;entryPerimeter=0;" edge="1" parent="1" target="XJgKt5gbjQXstTjNCs9V-11">
          <mxGeometry width="80" relative="1" as="geometry">
            <mxPoint x="810" y="195.52" as="sourcePoint" />
            <mxPoint x="981.3800000000001" y="198.19999999999993" as="targetPoint" />
          </mxGeometry>
        </mxCell>
        <mxCell id="XJgKt5gbjQXstTjNCs9V-11" value="&lt;b&gt;ref&lt;/b&gt;" style="shape=umlFrame;whiteSpace=wrap;html=1;pointerEvents=0;recursiveResize=0;container=1;collapsible=0;width=50;height=30;" vertex="1" parent="1">
          <mxGeometry x="980" y="175" width="210" height="50" as="geometry" />
        </mxCell>
        <mxCell id="XJgKt5gbjQXstTjNCs9V-12" value="U1 Find Nearest Carpark" style="text;html=1;align=center;verticalAlign=middle;resizable=0;points=[];autosize=1;strokeColor=none;fillColor=none;" vertex="1" parent="XJgKt5gbjQXstTjNCs9V-11">
          <mxGeometry x="50" y="10" width="160" height="30" as="geometry" />
        </mxCell>
        <mxCell id="XJgKt5gbjQXstTjNCs9V-14" value="" style="html=1;verticalAlign=bottom;endArrow=open;dashed=1;endSize=8;curved=0;rounded=0;" edge="1" parent="1">
          <mxGeometry relative="1" as="geometry">
            <mxPoint x="980" y="206" as="sourcePoint" />
            <mxPoint x="810" y="206" as="targetPoint" />
          </mxGeometry>
        </mxCell>
        <mxCell id="XJgKt5gbjQXstTjNCs9V-15" value="POST /api/v1/carpark/nearby" style="html=1;verticalAlign=bottom;endArrow=block;curved=0;rounded=0;entryX=0.011;entryY=0.367;entryDx=0;entryDy=0;entryPerimeter=0;" edge="1" parent="1" target="XJgKt5gbjQXstTjNCs9V-16">
          <mxGeometry width="80" relative="1" as="geometry">
            <mxPoint x="810" y="325.52" as="sourcePoint" />
            <mxPoint x="981.3800000000001" y="328.19999999999993" as="targetPoint" />
          </mxGeometry>
        </mxCell>
        <mxCell id="XJgKt5gbjQXstTjNCs9V-16" value="&lt;b&gt;ref&lt;/b&gt;" style="shape=umlFrame;whiteSpace=wrap;html=1;pointerEvents=0;recursiveResize=0;container=1;collapsible=0;width=50;height=30;" vertex="1" parent="1">
          <mxGeometry x="980" y="305" width="210" height="50" as="geometry" />
        </mxCell>
        <mxCell id="XJgKt5gbjQXstTjNCs9V-17" value="U1 Find Nearest Carpark" style="text;html=1;align=center;verticalAlign=middle;resizable=0;points=[];autosize=1;strokeColor=none;fillColor=none;" vertex="1" parent="XJgKt5gbjQXstTjNCs9V-16">
          <mxGeometry x="50" y="10" width="160" height="30" as="geometry" />
        </mxCell>
        <mxCell id="XJgKt5gbjQXstTjNCs9V-18" value="" style="html=1;verticalAlign=bottom;endArrow=open;dashed=1;endSize=8;curved=0;rounded=0;" edge="1" parent="1">
          <mxGeometry relative="1" as="geometry">
            <mxPoint x="980" y="334" as="sourcePoint" />
            <mxPoint x="810" y="334" as="targetPoint" />
          </mxGeometry>
        </mxCell>
      </root>
    </mxGraphModel>
  </diagram>
</mxfile>
